<?xml version='1.0' encoding='utf-8'?>
<svg xmlns="http://www.w3.org/2000/svg" version="1.1" width="2000px" height="1500px" viewBox="0 0 2000 1500"><defs><style>
        .wall { stroke: #37474F; stroke-width: 3; fill: none; }
        .room-fill { opacity: 0.8; }
        .room-text { font-family: Arial, sans-serif; font-size: 12px; fill: #263238; text-anchor: middle; }
        .area-text { font-family: Arial, sans-serif; font-size: 10px; fill: #666666; text-anchor: middle; }
        .door { stroke: #8D6E63; stroke-width: 2; fill: #8D6E63; }
        .window { stroke: #64B5F6; stroke-width: 2; fill: none; }
        </style></defs><rect x="200" y="200" width="800" height="600" fill="#E8F5E9" class="room-fill" /><rect x="200" y="200" width="800" height="600" class="wall" /><rect x="800" y="400" width="80.0" height="10.0" class="door" /><rect x="200" y="200" width="200" height="20.0" class="window" /><rect x="1200" y="200" width="600" height="500" fill="#E3F2FD" class="room-fill" /><rect x="1200" y="200" width="600" height="500" class="wall" /><rect x="1600" y="600" width="80.0" height="10.0" class="door" /><rect x="1200" y="200" width="200" height="20.0" class="window" /><rect x="1200" y="800" width="600" height="500" fill="#E3F2FD" class="room-fill" /><rect x="1200" y="800" width="600" height="500" class="wall" /><rect x="1600" y="1000" width="80.0" height="10.0" class="door" /><rect x="1200" y="800" width="200" height="20.0" class="window" /><rect x="200" y="800" width="500" height="400" fill="#FFF3E0" class="room-fill" /><rect x="200" y="800" width="500" height="400" class="wall" /><rect x="500" y="1000" width="80.0" height="10.0" class="door" /><rect x="200" y="800" width="100" height="20.0" class="window" /><rect x="800" y="800" width="300" height="300" fill="#F3E5F5" class="room-fill" /><rect x="800" y="800" width="300" height="300" class="wall" /><rect x="800" y="1000" width="80.0" height="10.0" class="door" /><rect x="800" y="200" width="300" height="400" fill="#FFEBEE" class="room-fill" /><rect x="800" y="200" width="300" height="400" class="wall" /><rect x="1000" y="400" width="80.0" height="10.0" class="door" /><text x="600.0" y="490.0" class="room-text">客厅</text><text x="600.0" y="510.0" class="area-text">48.0m²</text><text x="1500.0" y="440.0" class="room-text">卧室</text><text x="1500.0" y="460.0" class="area-text">30.0m²</text><text x="1500.0" y="1040.0" class="room-text">卧室</text><text x="1500.0" y="1060.0" class="area-text">30.0m²</text><text x="450.0" y="990.0" class="room-text">厨房</text><text x="450.0" y="1010.0" class="area-text">20.0m²</text><text x="950.0" y="940.0" class="room-text">卫生间</text><text x="950.0" y="960.0" class="area-text">9.0m²</text><text x="950.0" y="390.0" class="room-text">餐厅</text><text x="950.0" y="410.0" class="area-text">12.0m²</text></svg>